name ./resultDataOpenSim/trcMotMarkerGrf/sub06/grf-05-06.mot
datacolumns 19
datarows 10
range 1.56000000 1.59600000
endheader

                time	     ground_force_vx	     ground_force_vy	     ground_force_vz	     ground_force_px	     ground_force_py	     ground_force_pz	   l_ground_force_vx	   l_ground_force_vy	   l_ground_force_vz	   l_ground_force_px	   l_ground_force_py	   l_ground_force_pz	     ground_torque_x	     ground_torque_y	     ground_torque_z	   l_ground_torque_x	   l_ground_torque_y	   l_ground_torque_z	
          1.56000000	         62.29900391	        506.27828767	        -21.73278555	          0.86617971	          0.00000000	          0.13454825	          0.00000000	          0.00000000	          0.00000000	          0.00000000	          0.00000000	          0.00000000	          0.00000000	          2.07805385	          0.00000000	          0.00000000	          0.00000000	          0.00000000	
          1.56400000	         65.89848818	        527.67162556	        -23.23322335	          0.86749637	          0.00000000	          0.13448715	          0.00000000	          0.00000000	          0.00000000	          0.00000000	          0.00000000	          0.00000000	          0.00000000	          2.09098222	          0.00000000	          0.00000000	          0.00000000	          0.00000000	
          1.56800000	         69.71438368	        549.67693859	        -24.67661727	          0.86867918	          0.00000000	          0.13438038	          0.00000000	          0.00000000	          0.00000000	          0.00000000	          0.00000000	          0.00000000	          0.00000000	          2.13898246	          0.00000000	          0.00000000	          0.00000000	          0.00000000	
          1.57200000	         73.77246049	        571.97674550	        -25.94867674	          0.86972134	          0.00000000	          0.13424265	          0.00000000	          0.00000000	          0.00000000	          0.00000000	          0.00000000	          0.00000000	          0.00000000	          2.21829892	          0.00000000	          0.00000000	          0.00000000	          0.00000000	
          1.57600000	         78.11220428	        594.21897753	        -26.92955803	          0.87063135	          0.00000000	          0.13407768	          0.00000000	          0.00000000	          0.00000000	          0.00000000	          0.00000000	          0.00000000	          0.00000000	          2.32280859	          0.00000000	          0.00000000	          0.00000000	          0.00000000	
          1.58000000	         82.79396955	        616.03606317	        -27.52166670	          0.87141298	          0.00000000	          0.13388219	          0.00000000	          0.00000000	          0.00000000	          0.00000000	          0.00000000	          0.00000000	          0.00000000	          2.44425260	          0.00000000	          0.00000000	          0.00000000	          0.00000000	
          1.58400000	         87.89891833	        637.07501293	        -27.67457981	          0.87207042	          0.00000000	          0.13366031	          0.00000000	          0.00000000	          0.00000000	          0.00000000	          0.00000000	          0.00000000	          0.00000000	          2.57287828	          0.00000000	          0.00000000	          0.00000000	          0.00000000	
          1.58800000	         93.51339971	        657.04378098	        -27.40158093	          0.87261410	          0.00000000	          0.13342494	          0.00000000	          0.00000000	          0.00000000	          0.00000000	          0.00000000	          0.00000000	          0.00000000	          2.69866531	          0.00000000	          0.00000000	          0.00000000	          0.00000000	
          1.59200000	         99.69991501	        675.74929129	        -26.78451509	          0.87304726	          0.00000000	          0.13318785	          0.00000000	          0.00000000	          0.00000000	          0.00000000	          0.00000000	          0.00000000	          0.00000000	          2.81297251	          0.00000000	          0.00000000	          0.00000000	          0.00000000	
          1.59600000	        106.47143821	        693.10790807	        -25.96461881	          0.87338417	          0.00000000	          0.13296185	          0.00000000	          0.00000000	          0.00000000	          0.00000000	          0.00000000	          0.00000000	          0.00000000	          2.91013840	          0.00000000	          0.00000000	          0.00000000	          0.00000000	
